<?xml version="1.0" standalone="no"?>
<!DOCTYPE svg PUBLIC "-//W3C//DTD SVG 20010904//EN"
 "http://www.w3.org/TR/2001/REC-SVG-20010904/DTD/svg10.dtd">
<svg version="1.0" xmlns="http://www.w3.org/2000/svg"
 width="1024.000000pt" height="1024.000000pt" viewBox="0 0 1024.000000 1024.000000"
 preserveAspectRatio="xMidYMid meet">
<metadata>
Created by potrace 1.14, written by Peter Selinger 2001-2017
</metadata>
<g transform="translate(0.000000,1024.000000) scale(0.100000,-0.100000)"
fill="#000000" stroke="none">
<path d="M2904 9230 c-556 -32 -909 -157 -1251 -443 -179 -151 -312 -327 -437
-578 -164 -330 -217 -567 -236 -1074 -12 -319 -12 -3912 0 -4230 11 -280 22
-394 56 -565 69 -348 228 -657 462 -901 321 -336 676 -501 1212 -566 135 -17
309 -18 2420 -18 1794 0 2301 3 2400 13 408 42 679 131 952 311 413 273 689
703 778 1211 44 250 43 186 47 2500 4 2236 2 2411 -33 2665 -39 283 -124 528
-272 785 -153 266 -385 495 -652 645 -231 130 -469 198 -820 236 -124 14
-4396 21 -4626 9z m3833 -783 c129 -44 210 -148 237 -304 l6 -33 -1850 0
-1850 0 6 43 c17 111 81 211 168 262 95 56 32 54 1696 52 1441 -2 1538 -3
1587 -20z m408 -757 c240 -34 385 -164 425 -378 l8 -44 -27 8 c-38 11 -4678
16 -4781 5 -47 -5 -86 -8 -87 -7 -1 1 4 30 12 64 46 197 189 319 410 351 86
12 3952 13 4040 1z m274 -890 c379 -34 621 -204 723 -508 58 -172 58 -150 58
-1897 0 -1049 -4 -1630 -10 -1685 -19 -153 -71 -305 -138 -403 -45 -64 -139
-153 -204 -193 -74 -45 -192 -88 -304 -111 -84 -17 -212 -18 -2414 -18 -2202
0 -2330 1 -2414 18 -387 79 -583 291 -646 697 -13 87 -13 3289 0 3385 35 248
130 432 285 550 111 84 289 146 470 164 124 12 4462 13 4594 1z"/>
<path d="M3553 8299 c-71 -22 -158 -96 -169 -141 l-6 -28 239 0 239 0 42 60
c23 32 42 61 42 65 0 3 -39 5 -86 5 l-86 0 17 26 17 26 -95 -4 c-53 -2 -93 0
-91 4 6 10 11 11 -63 -13z"/>
<path d="M4990 6019 c-292 -25 -536 -199 -660 -472 -16 -35 -41 -108 -56 -163
-25 -93 -27 -117 -33 -374 l-6 -274 -44 -8 c-92 -16 -158 -76 -197 -178 -16
-41 -18 -109 -18 -745 -1 -668 0 -703 19 -760 14 -43 32 -73 66 -107 82 -82
34 -78 1009 -78 921 0 909 -1 985 51 39 27 81 88 98 144 9 30 12 218 12 745 0
662 -1 708 -19 758 -10 30 -32 70 -50 89 -34 40 -116 83 -157 83 l-26 0 -6
253 c-9 348 -37 479 -144 658 -157 265 -445 406 -773 378z m176 -320 c191 -35
336 -179 390 -390 12 -48 18 -127 21 -316 l5 -253 -506 0 -506 0 0 243 c0 262
9 328 54 431 57 129 159 226 278 265 103 33 167 38 264 20z"/>
</g>
</svg>
